<svg width="73" height="73" viewBox="0 0 73 73" fill="none" xmlns="http://www.w3.org/2000/svg">
<path d="M36.4168 4.87598L23.1571 17.8922V32.7678L12.1548 41.8394V49.3069L23.1571 46.2236V50.798H29.6325V57.1606H42.9398V50.798H49.4211V46.1048L60.8452 49.3069V41.8394L49.4211 32.4233V17.8981L36.4168 4.87598ZM36.3931 9.15926L44.5438 17.3219H28.076L36.3931 9.15926ZM26.1987 20.3635H46.3795V40.972H26.1987V20.3635ZM49.4211 36.362L57.8036 43.277V45.2969L49.4211 42.9443V36.362ZM23.1571 36.7125V43.0632L15.1965 45.2969V43.277L23.1571 36.7125ZM26.1987 44.0137H46.3795V47.7563H26.1987V44.0137ZM32.6742 50.798H39.8981V54.1189H32.6742V50.798Z" fill="black"/>
<path d="M36.2861 23.7914C32.7142 23.7914 29.8167 26.7635 29.8167 30.3559C29.8167 33.9483 32.7142 36.9205 36.2861 36.9205C39.858 36.9205 42.7616 33.9483 42.7616 30.3559C42.7616 26.7635 39.858 23.7914 36.2861 23.7914ZM36.2861 26.833C38.1837 26.833 39.7199 28.3774 39.7199 30.3559C39.7199 32.3344 38.1837 33.8788 36.2861 33.8788C34.3886 33.8788 32.8583 32.3344 32.8583 30.3559C32.8583 28.3774 34.3886 26.833 36.2861 26.833Z" fill="black"/>
<path d="M32.2507 58.8451C32.2507 61.9381 32.2507 65.0311 32.2507 68.1242C33.0564 68.1242 33.8621 68.1242 34.6678 68.1242C34.6678 65.0311 34.6678 61.9381 34.6678 58.8451C33.8621 58.8451 33.0564 58.8451 32.2507 58.8451Z" fill="black"/>
<path d="M38.334 58.8451C38.334 61.9381 38.334 65.0311 38.334 68.1242C39.1397 68.1242 39.9454 68.1242 40.7511 68.1242C40.7511 65.0311 40.7511 61.9381 40.7511 58.8451C39.9454 58.8451 39.1397 58.8451 38.334 58.8451Z" fill="black"/>
</svg>
