<svg width="25" height="26" viewBox="0 0 25 26" fill="none" xmlns="http://www.w3.org/2000/svg">
<g clip-path="url(#clip0_134_191)">
<path d="M24.6094 13.2451C24.6094 19.933 19.1878 25.3545 12.5 25.3545C5.81216 25.3545 0.390625 19.933 0.390625 13.2451C0.390625 6.55728 5.81216 1.13574 12.5 1.13574C19.1878 1.13574 24.6094 6.55728 24.6094 13.2451ZM11.0993 19.6569L20.0837 10.6726C20.3888 10.3675 20.3888 9.8728 20.0837 9.56772L18.9789 8.46289C18.6738 8.15776 18.1791 8.15776 17.874 8.46289L10.5469 15.7899L7.12603 12.3691C6.82095 12.064 6.32627 12.064 6.02114 12.3691L4.91631 13.4739C4.61123 13.779 4.61123 14.2737 4.91631 14.5788L9.99443 19.6569C10.2996 19.962 10.7942 19.962 11.0993 19.6569Z" fill="#007DE9"/>
</g>
<defs>
<clipPath id="clip0_134_191">
<rect width="25" height="25" fill="white" transform="translate(0 0.745117)"/>
</clipPath>
</defs>
</svg>
