<svg width="47" height="38" viewBox="0 0 47 38" fill="none" xmlns="http://www.w3.org/2000/svg">
<g clip-path="url(#clip0_134_1828)">
<path d="M30.55 2.37055C30.55 1.61426 29.9698 0 28.2073 0C27.1807 0 26.2341 0.673313 25.9389 1.72039L16.5389 34.9704C16.4771 35.1882 16.4477 35.4077 16.4477 35.6236C16.3839 36.3895 17.0375 38 18.8 38C19.8222 38 20.763 37.3204 21.0582 36.2766L30.4582 3.02664C30.5206 2.80621 30.55 2.58652 30.55 2.37055ZM12.925 10.6207C12.925 9.26398 11.8271 8.2457 10.575 8.2457C9.97369 8.2457 9.37209 8.47764 8.91384 8.94158L0.688844 17.2541C0.229492 17.7828 0 18.3914 0 18.9332C0 19.475 0.229492 20.2172 0.688477 20.6773L8.91348 28.9898C9.37062 29.4574 9.97281 29.6207 10.575 29.6207C11.8271 29.6207 12.925 28.6017 12.925 27.2457C12.925 26.638 12.6955 26.03 12.2365 25.5661L5.67305 18.9332L12.2369 12.2995C12.6973 11.8973 12.925 11.2961 12.925 10.6207ZM47 18.9332C47 18.3255 46.7705 17.7175 46.3115 17.2536L38.0865 8.94113C37.6294 8.54258 37.0272 8.2457 36.425 8.2457C35.1729 8.2457 34.075 9.26473 34.075 10.6207C34.075 11.2284 34.3045 11.8364 34.7635 12.3003L41.3273 18.9339L34.7635 25.5676C34.3027 26.0953 34.075 26.7039 34.075 27.2457C34.075 28.6024 35.1729 29.6207 36.425 29.6207C37.0263 29.6207 37.6279 29.3888 38.0862 28.9248L46.3112 20.6123C46.7723 20.2172 47 19.6086 47 18.9332Z" fill="#007DE9"/>
</g>
<defs>
<clipPath id="clip0_134_1828">
<rect width="47" height="38" fill="white"/>
</clipPath>
</defs>
</svg>
