<?xml version="1.0" encoding="UTF-8"?>
<svg id="Layer_3" data-name="Layer 3" xmlns="http://www.w3.org/2000/svg" viewBox="0 0 1208.29 1287.89">
  <defs>
    <style>
      .cls-1 {
        fill: #0071bc;
      }

      .cls-2 {
        fill: #29abe2;
      }
    </style>
  </defs>
  <path class="cls-1" d="M1097.87,1287.89H.17c-2.86-94.07,29.53-171.51,107.52-222.12,53.99-35.03,115.56-58.21,172.81-88.46,30.2-15.96,59.8-33.91,86.76-54.72,9.93-7.66,15.5-25.96,16.15-39.73,1.99-41.89,8.05-85.51-28.12-119.13-5.39-5.01-6.9-14.48-9.49-22.12-11.32-33.45-12.35-67.9-47.4-94.41-34.02-25.72-30.71-84.02-9.87-121.58,5.64-10.17,8.43-24.64,6.29-35.97-14.59-77.31-25.75-154.52-2.63-232.01,25.39-85.13,104.18-144.12,192.85-146.73,25.88-.76,36.23,8.38,35.77,35.53-1.42,84.34-1.17,168.71-.59,253.06,.39,57.79,35.08,92.39,92.82,94.77,60.27,2.49,71.61,14.4,71.7,75.3,.1,65.3,1.94,66.12,63.85,91.75,9.72,4.02,20.63,25.6,17.9,35.44-7.99,28.82-19.03,58.23-35.78,82.69-12.47,18.2-14.34,35.48-17.96,55.39-13.56,74.48,28.4,109.88,88.2,136.11,52.88,23.19,106.3,45.79,156.93,73.34,94.62,51.49,141.61,132.51,139.99,243.61h-.02Z"/>
  <path class="cls-2" d="M725.26,465.46c-26.66,0-45.85,.55-64.99-.11-48.91-1.68-82.01-34.35-82.32-83.16-.65-100.56-.72-201.14,.06-301.71,.37-47.81,32.73-79.85,81.12-80.04C814.55-.15,969.98-.15,1125.39,.45c47.01,.18,81.26,33.02,81.88,80.43,1.32,101.57,1.42,203.18-.08,304.74-.68,46.39-38.04,79.2-86.76,79.67-68.06,.66-136.13,.73-204.18-.23-16.56-.23-23.5,6.06-32.2,19.78-18.83,29.69-39.94,58.56-64.03,84.07-13.18,13.95-33.29,23.91-52.11,29.45-43.29,12.73-57.26-4.39-47.75-47.53,5.87-26.63,3.58-55.06,5.1-85.38h-.02Zm58.79,58.22c2.48,1.64,4.96,3.28,7.43,4.93,18.63-29.5,39.02-58.08,55.27-88.84,10.87-20.57,23.45-29.97,47.17-29.61,74.11,1.13,148.25,.02,222.38,.62,25.68,.21,36.87-10.53,36.73-36.41-.52-95.45-.48-190.9-.02-286.35,.12-24.81-12.55-35.48-35.38-35.52-150.28-.24-300.57-.15-450.85-.11-23.23,0-36.63,11.42-36.7,35.08-.29,96.46-.39,192.93,.09,289.39,.11,23.23,12.54,34.95,36.88,33.88,21.28-.93,42.65,.27,63.96-.3,21.56-.58,34.65,8.49,38.41,30.19,4.79,27.7,9.76,55.37,14.65,83.05h-.02Z"/>
  <path class="cls-2" d="M932.09,137.92v51.14h-187.23v-51.14h187.23Z"/>
  <path class="cls-2" d="M879.67,324.99v-48.52h187.07v48.52h-187.07Z"/>
  <path class="cls-2" d="M1068.35,138.54v49.89h-78.58v-49.89h78.58Z"/>
  <path class="cls-2" d="M744.46,276.36h77.14v48.89h-77.14v-48.89Z"/>
</svg>