<?xml version="1.0" encoding="UTF-8"?>
<svg id="Layer_3" data-name="Layer 3" xmlns="http://www.w3.org/2000/svg" viewBox="0 0 1594.69 1758.17">
  <defs>
    <style>
      .cls-1 {
        fill: #0071bc;
      }

      .cls-2 {
        fill: #29abe2;
      }
    </style>
  </defs>
  <path class="cls-1" d="M1448.96,1699.74H.23c-3.78-124.15,38.97-226.36,141.91-293.15,71.26-46.23,152.52-76.82,228.07-116.75,39.86-21.06,78.92-44.75,114.51-72.22,13.11-10.11,20.46-34.26,21.32-52.43,2.63-55.28,10.63-112.85-37.11-157.23-7.11-6.61-9.11-19.11-12.53-29.2-14.94-44.15-16.3-89.62-62.56-124.6-44.9-33.95-40.53-110.89-13.02-160.46,7.45-13.42,11.12-32.52,8.3-47.47-19.25-102.04-33.98-203.93-3.47-306.21,33.51-112.35,137.49-190.21,254.52-193.65,34.16-1,47.81,11.06,47.21,46.89-1.88,111.31-1.55,222.66-.78,333.99,.52,76.27,46.3,121.93,122.51,125.08,79.54,3.29,94.51,19.01,94.63,99.38,.13,86.18,2.56,87.26,84.27,121.09,12.83,5.31,27.23,33.79,23.63,46.77-10.55,38.03-25.11,76.85-47.22,109.13-16.46,24.02-18.93,46.82-23.71,73.1-17.89,98.3,37.48,145.02,116.4,179.64,69.79,30.61,140.29,60.43,207.11,96.79,124.88,67.95,186.89,174.88,184.76,321.51Z"/>
  <path class="cls-2" d="M957.19,614.3c-35.19,0-60.51,.73-85.77-.14-64.55-2.22-108.23-45.33-108.65-109.75-.86-132.72-.95-265.46,.08-398.19,.49-63.1,43.2-105.38,107.06-105.63,205.13-.8,410.26-.79,615.38,0,62.05,.24,107.25,43.58,108.07,106.15,1.74,134.05,1.87,268.15-.1,402.2-.9,61.23-50.21,104.53-114.51,105.15-89.82,.87-179.66,.97-269.47-.3-21.86-.31-31.02,8-42.5,26.11-24.85,39.19-52.71,77.29-84.5,110.95-17.39,18.41-43.94,31.56-68.77,38.87-57.14,16.8-75.57-5.8-63.02-62.73,7.75-35.15,4.73-72.67,6.73-112.68Zm77.59,76.85c3.27,2.17,6.54,4.33,9.81,6.5,24.59-38.94,51.5-76.65,72.95-117.25,14.34-27.15,30.95-39.56,62.25-39.08,97.81,1.49,195.66,.03,293.49,.82,33.89,.28,48.66-13.9,48.47-48.05-.69-125.97-.64-251.95-.03-377.92,.16-32.75-16.57-46.83-46.7-46.88-198.34-.32-396.69-.2-595.03-.14-30.66,.01-48.34,15.07-48.43,46.3-.38,127.31-.51,254.63,.12,381.94,.15,30.66,16.55,46.13,48.68,44.72,28.09-1.23,56.29,.35,84.41-.4,28.45-.76,45.73,11.2,50.69,39.84,6.32,36.56,12.88,73.08,19.34,109.61Z"/>
  <path class="cls-2" d="M1230.17,182.02v67.49h-247.1v-67.49h247.1Z"/>
  <path class="cls-2" d="M1160.99,428.92v-64.03h246.9v64.03h-246.9Z"/>
  <path class="cls-2" d="M1410,182.84v65.85h-103.71v-65.85h103.71Z"/>
  <path class="cls-2" d="M982.54,364.73h101.81v64.52h-101.81v-64.52Z"/>
</svg>