<?xml version="1.0" encoding="UTF-8"?>
<svg id="Layer_2" data-name="Layer 2" xmlns="http://www.w3.org/2000/svg" viewBox="0 0 1616 1616">
  <defs>
    <style>
      .cls-1 {
        fill: #fff;
      }

      .cls-2 {
        fill: #0071bc;
      }
    </style>
  </defs>
  <path class="cls-1" d="M444.26,1616H0V0H1616V1616h-440.66c28.71-12.28,40.08-33.98,38.15-64.98-1.6-25.63-.3-51.43-.34-77.15-.05-40.76-18.87-59.49-59.84-59.5-160.15-.02-320.31-.02-480.46-.03-5.66,0-11.32,0-17.35,0-23.89-139.47-98.19-251.6-185.06-357.93,95.31-142.91,190.52-285.68,285.73-428.45l2.6,1.33v238.89c-5.43,2.55-10.75,4.8-15.85,7.47-50.41,26.46-79.37,68.1-83.77,124.72-5.94,76.41,47.49,145.1,121.45,158.9,75.82,14.14,148.87-28.53,172.81-100.94,24.08-72.87-10.01-151.84-80.59-184.24-10.63-4.88-12.86-10.62-12.81-21.07,.38-69.82,.2-139.65,.2-209.47,0-4.95,0-9.9,0-18.06,3.82,4.26,5.3,5.56,6.35,7.14,92.31,138.34,184.52,276.74,277.05,414.93,5.43,8.11,2.81,12.41-2.54,18.71-56.36,66.3-104.82,137.71-138.84,218.22-12.58,29.78-2.38,58.37,24.57,70.09,26.89,11.69,55.03-.38,67.87-30.21,35.72-82.96,87.67-154.98,148.3-221.17,25.55-27.88,27.37-46.82,6.25-78.49-130.66-196.01-261.34-392.02-392.04-588-27.42-41.11-67.23-41.31-94.55-.36-131.31,196.84-262.56,393.72-393.78,590.61-19.14,28.72-17.14,48.76,6.28,74.84,64.22,71.51,119.57,148.94,155.52,238.76,9.27,23.15,15.49,47.53,23.89,73.8-33.9,0-64.22-.18-94.54,.05-32.39,.24-53.22,20.91-53.52,53.14-.26,27.82,1.17,55.72-.4,83.46-1.75,30.94,9.4,52.73,38.16,64.99ZM1097.52,204.53c71.89,0,143.79,.2,215.68-.23,9.93-.06,15.88,2.84,22.01,10.86,36.61,47.92,104.78,53.26,148.67,12.32,42.43-39.58,42.13-107.98-.64-147.33-44.14-40.61-111.92-34.7-148.59,13.5-5.72,7.53-11.35,10.29-20.71,10.26-112.9-.34-225.8-.22-338.7-.27-4.5,0-9.01-.56-14.19-.91,0-15.44,.05-29.57-.01-43.69-.15-35.58-20.18-56.05-55.32-56.12-64.06-.13-128.13-.13-192.19,0-34.44,.07-54.74,20.49-54.98,54.87-.1,15-.02,30.01-.02,45.33-4.69,.27-7.25,.55-9.82,.55-115,.02-230,.19-345-.42-6.26-.03-14.35-5.07-18.45-10.25-37.42-47.29-105.22-53.32-149.17-12.63-42.74,39.57-42.8,107.64-.12,147.27,44.01,40.88,112.16,35.37,148.55-12.72,6.21-8.21,12.44-10.61,22.13-10.56,67.74,.35,135.48,.17,203.22,.21,4.29,0,8.57,.5,16.27,.97-7.52,3.87-11.62,6.04-15.77,8.1-187.65,92.72-315.5,237.7-382.45,436.32-2.39,7.08-9.93,14.22-16.88,17.68-53.22,26.47-73.51,91.07-43.83,142.08,29.28,50.34,95.8,65.47,143.71,32.68,48.91-33.47,59.13-100.52,21.37-146.55-7.44-9.07-8.23-16.12-4.51-26.52,57.6-161.15,162.48-281.15,314.74-358.75,36.56-18.63,76.16-31.29,115.46-47.14,12.6,35.49,36.74,42.96,67.55,42.28,56.68-1.25,113.43-1.18,170.12,0,30.41,.63,53.65-7.67,64.34-37.62,2.07-.25,3.16-.66,4.12-.44,4.08,.93,8.18,1.85,12.17,3.11,202.2,63.9,339.08,196.28,413.84,394.08,4.86,12.85,4.9,21.71-4.57,33.58-36.5,45.76-24.51,112.54,24.37,144.81,48.62,32.1,114.45,16.06,143.14-34.87,28.64-50.84,8.37-115.48-44.81-140.04-10.2-4.71-14.75-10.95-18.07-21.13-45.59-139.55-126.71-254.51-241.03-346.31-46.79-37.57-97.91-68.17-151.63-96.34Z"/>
  <path class="cls-2" d="M444.26,1616c-28.76-12.26-39.91-34.05-38.16-64.99,1.57-27.74,.14-55.63,.4-83.46,.3-32.23,21.13-52.9,53.52-53.14,30.32-.23,60.64-.05,94.54-.05-8.41-26.27-14.63-50.65-23.89-73.8-35.95-89.82-91.3-167.25-155.52-238.76-23.42-26.08-25.42-46.12-6.28-74.84,131.23-196.89,262.47-393.78,393.78-590.61,27.32-40.95,67.13-40.76,94.55,.36,130.71,195.98,261.38,391.99,392.04,588,21.11,31.67,19.29,50.61-6.25,78.49-60.64,66.18-112.58,138.2-148.3,221.17-12.84,29.83-40.99,41.91-67.87,30.21-26.95-11.72-37.15-40.32-24.57-70.09,34.02-80.52,82.48-151.92,138.84-218.22,5.35-6.3,7.98-10.6,2.54-18.71-92.53-138.19-184.74-276.6-277.05-414.93-1.05-1.58-2.53-2.88-6.35-7.14,0,8.16,0,13.11,0,18.06,0,69.83,.18,139.65-.2,209.47-.06,10.45,2.17,16.19,12.81,21.07,70.58,32.4,104.67,111.38,80.59,184.24-23.94,72.41-96.98,115.08-172.81,100.94-73.96-13.8-127.4-82.48-121.45-158.9,4.4-56.61,33.36-98.26,83.77-124.72,5.1-2.67,10.42-4.92,15.85-7.47v-238.89l-2.6-1.33c-95.21,142.77-190.42,285.53-285.73,428.45,86.86,106.33,161.17,218.46,185.06,357.93,6.02,0,11.69,0,17.35,0,160.15,0,320.31,0,480.46,.03,40.97,0,59.79,18.74,59.84,59.5,.03,25.73-1.26,51.53,.34,77.15,1.93,31-9.44,52.7-38.15,64.98h-28.36c-46.6-20.03-33.3-62.83-35.81-98.92H508.07c0,12.57-.89,24.12,.17,35.48,2.79,29.64-8.83,50.67-35.63,63.44h-28.36Zm415.9-604.7c.11-27.56-22.23-50.26-49.74-50.56-28.27-.3-51.21,22.6-50.96,50.88,.25,27.5,22.96,49.9,50.49,49.82,27.49-.09,50.1-22.66,50.21-50.14Z"/>
  <path class="cls-1" d="M472.62,1616c26.8-12.77,38.41-33.8,35.63-63.44-1.07-11.36-.17-22.91-.17-35.48h603.09c2.51,36.09-10.79,78.9,35.81,98.92H472.62Z"/>
  <path class="cls-2" d="M1097.52,204.53c53.72,28.17,104.84,58.76,151.63,96.34,114.31,91.8,195.44,206.76,241.03,346.31,3.33,10.18,7.87,16.42,18.07,21.13,53.18,24.56,73.45,89.2,44.81,140.04-28.69,50.93-94.52,66.97-143.14,34.87-48.88-32.27-60.87-99.05-24.37-144.81,9.47-11.87,9.42-20.74,4.57-33.58-74.76-197.8-211.64-330.18-413.84-394.08-3.99-1.26-8.09-2.19-12.17-3.11-.96-.22-2.05,.2-4.12,.44-10.69,29.94-33.93,38.25-64.34,37.62-56.69-1.18-113.44-1.25-170.12,0-30.81,.68-54.95-6.79-67.55-42.28-39.3,15.85-78.9,28.51-115.46,47.14-152.26,77.61-257.14,197.6-314.74,358.75-3.72,10.4-2.93,17.45,4.51,26.52,37.76,46.04,27.54,113.08-21.37,146.55-47.91,32.79-114.43,17.66-143.71-32.68-29.67-51.02-9.39-115.61,43.83-142.08,6.96-3.46,14.5-10.6,16.88-17.68,66.94-198.62,194.8-343.6,382.45-436.32,4.16-2.05,8.25-4.23,15.77-8.1-7.7-.48-11.98-.97-16.27-.97-67.74-.04-135.48,.15-203.22-.21-9.69-.05-15.92,2.35-22.13,10.56-36.39,48.1-104.54,53.6-148.55,12.72-42.67-39.63-42.61-107.7,.12-147.27,43.95-40.69,111.74-34.65,149.17,12.63,4.1,5.18,12.19,10.22,18.45,10.25,115,.61,230,.45,345,.42,2.56,0,5.13-.28,9.82-.55,0-15.32-.09-30.33,.02-45.33,.24-34.38,20.54-54.8,54.98-54.87,64.06-.14,128.13-.13,192.19,0,35.14,.07,55.17,20.54,55.32,56.12,.06,14.13,.01,28.25,.01,43.69,5.18,.35,9.69,.91,14.19,.91,112.9,.05,225.8-.07,338.7,.27,9.36,.03,14.98-2.73,20.71-10.26,36.67-48.21,104.45-54.11,148.59-13.5,42.77,39.35,43.07,107.75,.64,147.33-43.89,40.94-112.06,35.59-148.67-12.32-6.13-8.02-12.08-10.92-22.01-10.86-71.89,.43-143.79,.23-215.68,.23Zm-337.44-1.12h98.89V104.52h-98.89v98.89Z"/>
  <path class="cls-1" d="M860.15,1011.3c-.11,27.47-22.72,50.05-50.21,50.14-27.53,.09-50.24-22.32-50.49-49.82-.26-28.28,22.68-51.18,50.96-50.88,27.51,.3,49.85,23,49.74,50.56Z"/>
  <path class="cls-1" d="M760.09,203.4V104.52h98.89v98.89h-98.89Z"/>
</svg>