<svg width="39" height="39" viewBox="0 0 39 39" fill="none" xmlns="http://www.w3.org/2000/svg">
<g clip-path="url(#clip0_134_1830)">
<path d="M39 2.84375C39 2.41277 38.8288 1.99945 38.524 1.6947C38.2193 1.38995 37.806 1.21875 37.375 1.21875C36.944 1.21875 36.5307 1.38995 36.226 1.6947C35.9212 1.99945 35.75 2.41277 35.75 2.84375V4.09988L6.24975 13.6256C6.08629 13.6785 5.94381 13.7819 5.84278 13.9209C5.74176 14.0599 5.68739 14.2273 5.6875 14.3991V24.0792C5.68749 24.2522 5.74264 24.4206 5.84493 24.56C5.94722 24.6994 6.09131 24.8025 6.25625 24.8544L8.36875 25.5174C8.534 25.569 8.67844 25.672 8.78104 25.8114C8.88364 25.9508 8.93903 26.1194 8.93912 26.2925V30.5029C8.94815 32.4361 9.72233 34.287 11.0924 35.651C12.4624 37.0149 14.3168 37.7808 16.25 37.7812H16.2841C18.2221 37.7722 20.0773 36.9942 21.442 35.6182C22.8067 34.2422 23.5694 32.3807 23.5625 30.4427V30.2803L35.75 34.099V35.3438C35.75 35.7747 35.9212 36.1881 36.226 36.4928C36.5307 36.7975 36.944 36.9688 37.375 36.9688C37.806 36.9688 38.2193 36.7975 38.524 36.4928C38.8288 36.1881 39 35.7747 39 35.3438V2.84375ZM20.3125 30.4509C20.3173 31.528 19.894 32.563 19.1358 33.3282C18.3777 34.0933 17.3467 34.5261 16.2695 34.5312H16.25C15.1773 34.5313 14.1482 34.1071 13.3871 33.3512C12.626 32.5953 12.1948 31.569 12.1875 30.4964V27.82C12.1876 27.6926 12.2176 27.567 12.2751 27.4534C12.3327 27.3397 12.4162 27.2412 12.5188 27.1658C12.6215 27.0903 12.7404 27.0401 12.8661 27.0191C12.9917 26.9981 13.1205 27.0069 13.2421 27.0449L19.7421 29.0826C19.9074 29.1342 20.0518 29.2372 20.1544 29.3767C20.257 29.5161 20.3124 29.6846 20.3125 29.8578V30.4509Z" fill="#007DE9"/>
<path d="M3.25 13.4062C3.25 12.9753 3.0788 12.5619 2.77405 12.2572C2.4693 11.9525 2.05598 11.7812 1.625 11.7812C1.19402 11.7812 0.780698 11.9525 0.475952 12.2572C0.171205 12.5619 0 12.9753 0 13.4062L0.008125 24.7812C0.008125 25.2122 0.17933 25.6256 0.484076 25.9303C0.788823 26.235 1.20215 26.4062 1.63312 26.4062H1.625C2.0493 26.4064 2.45683 26.2405 2.76048 25.9442C3.06413 25.6478 3.23982 25.2444 3.25 24.8203V13.4062Z" fill="#007DE9"/>
</g>
<defs>
<clipPath id="clip0_134_1830">
<rect width="39" height="39" fill="white"/>
</clipPath>
</defs>
</svg>
