<?xml version="1.0" encoding="UTF-8"?>
<svg xmlns="http://www.w3.org/2000/svg" viewBox="0 0 1401.07 1817.22">
  <defs>
    <style>
      .cls-1 {
        fill: #29abf6;
      }

      .cls-2 {
        fill: #006096;
        stroke: #767676;
        stroke-miterlimit: 10;
      }

      .cls-3 {
        fill: #2394cc;
      }

      .cls-4 {
        letter-spacing: 0em;
      }

      .cls-5 {
        fill: #0071bc;
      }

      .cls-6 {
        fill: #fff;
        font-family: Rubik-Bold, Rubik;
        font-size: 200px;
        font-variation-settings: 'wght' 700;
      }

      .cls-7 {
        letter-spacing: -.02em;
      }

      .cls-8 {
        letter-spacing: -.03em;
      }
    </style>
  </defs>
  <g id="Layer_1" data-name="Layer 1">
    <path class="cls-2" d="M1.21,278.51c35.38,0,69.19,0,103.01,0,24.79,0,49.59,.16,74.38-.06,57.5-.51,98.84-40.29,99.9-97.98,1.04-56.67,.32-113.37,.38-170.06,0-2.48,0-4.95,0-9.11,5.95-.28,11.29-.75,16.63-.75,158.37-.04,316.74-.11,475.1,.02,62.1,.05,101.39,39.47,101.41,101.62,.07,320.39,.07,640.78,0,961.17-.01,59.75-40.32,100.37-99.85,100.4-223.64,.12-447.28,.11-670.91,0-60.02-.03-100.61-40.07-100.65-99.6-.16-257.12-.08-514.24-.06-771.36,0-4.01,.37-8.02,.67-14.29Z"/>
    <text class="cls-6" transform="translate(171.54 762.06)"><tspan x="0" y="0">.JPG</tspan></text>
    <path class="cls-5" d="M530.21,931.88c35.38,0,69.19,0,103.01,0,24.79,0,49.59,.16,74.38-.06,57.5-.51,98.84-40.29,99.9-97.98,1.04-56.67,.32-113.37,.38-170.06,0-2.48,0-4.95,0-9.11,5.95-.28,11.29-.75,16.63-.75,158.37-.04,316.74-.11,475.1,.02,62.1,.05,101.39,39.47,101.41,101.62,.07,320.39,.07,640.78,0,961.17-.01,59.75-40.32,100.37-99.85,100.4-223.64,.12-447.28,.11-670.91,0-60.02-.03-100.61-40.07-100.65-99.6-.16-257.12-.08-514.24-.06-771.36,0-4.01,.37-8.02,.67-14.29Z"/>
    <text class="cls-6" transform="translate(652.54 1399.43)"><tspan class="cls-8" x="0" y="0">.</tspan><tspan class="cls-4" x="51.4" y="0">WEB</tspan><tspan class="cls-7" x="486" y="0">P</tspan></text>
    <path class="cls-1" d="M530.21,931.88l277.66-277.21v197.46c-1.84,8.5-8.73,35.19-33.75,56.12-21.4,17.9-44.24,21.71-53.36,22.74-63.52,.3-127.03,.59-190.55,.89Z"/>
  </g>
  <g id="Layer_2" data-name="Layer 2">
    <path class="cls-3" d="M1.21,278.51L278.87,1.3V198.76c-1.84,8.5-8.73,35.19-33.75,56.12-21.4,17.9-44.24,21.71-53.36,22.74-63.52,.3-127.03,.59-190.55,.89Z"/>
  </g>
</svg>