<svg width="36" height="36" viewBox="0 0 36 36" fill="none" xmlns="http://www.w3.org/2000/svg">
<g clip-path="url(#clip0_134_1818)">
<path d="M9.60469 9.75941C8.17242 10.1636 7.02984 11.2536 6.55523 12.6682L0 32.3438L1.03711 33.3809L11.5207 22.827C11.373 22.3876 11.1868 21.8953 11.1868 21.3771C11.1868 19.5139 12.6985 18.0029 14.5611 18.0029C16.4237 18.0029 17.9354 19.5146 17.9354 21.3771C17.9354 23.2397 16.4237 24.7514 14.5611 24.7514C14.0426 24.7514 13.5507 24.6284 13.1112 24.4175L2.55734 34.9011L3.65555 36L23.329 29.4441C24.7437 28.9696 25.8335 27.8902 26.2378 26.3946L29.2437 15.7493L20.307 6.81262L9.60469 9.75941ZM35.0086 5.21652L30.7807 0.988632C29.4623 -0.329727 27.3185 -0.329024 26.0009 0.989089L22.0289 4.96948L30.9656 13.9062L34.946 9.93425C36.3305 8.6766 36.3305 6.53488 35.0086 5.21652Z" fill="#007DE9"/>
</g>
<defs>
<clipPath id="clip0_134_1818">
<rect width="36" height="36" fill="white"/>
</clipPath>
</defs>
</svg>
