<?xml version="1.0" encoding="UTF-8"?>
<svg xmlns="http://www.w3.org/2000/svg" viewBox="0 0 2000.19 2078.07">
  <defs>
    <style>
      .cls-1 {
        fill: #0081bc;
      }

      .cls-2 {
        fill: #29b8e2;
      }

      .cls-3 {
        font-family:Roboto-Regular,Roboto;
        font-size: 1292.18px;
        font-variation-settings: 'wght' 400;
      }

      .cls-3, .cls-4 {
        fill: #0071bc;
      }

      .cls-5 {
        fill: #29abe2;
      }
    </style>
  </defs>
  <g id="Layer_2" data-name="Layer 2">
    <g>
      <polygon class="cls-4" points="1850.52 1000 1702 856 1783 675 1597.29 604.52 1597.29 400 1394 400 1321.48 226.02 1133.32 292.68 1000 159.35 1000 1849.68 1144 1705 1320 1785 1397 1603 1601 1603 1601 1396 1781 1327 1704 1145 1850.52 1000"/>
      <polygon class="cls-1" points="678.48 225.98 605.97 399.97 402.68 399.97 402.68 604.48 216.97 674.97 297.97 855.97 149.45 999.97 295.97 1144.97 218.97 1326.97 398.97 1395.97 398.97 1602.97 602.97 1602.97 679.97 1784.97 855.97 1704.97 999.97 1849.65 999.97 159.32 866.65 292.65 678.48 225.98"/>
    </g>
  </g>
  <g id="Layer_3" data-name="Layer 3">
    <g>
      <polygon class="cls-5" points="1726.32 1000.1 1599 872 1673 729 1511.81 664.19 1511.81 488 1338 488 1278 327 1126 405 1000 277.1 1000 1723.87 1123 1600 1278 1672 1339 1516 1513 1508 1513 1340 1671 1277 1602 1114 1726.32 1000.1"/>
      <polygon class="cls-2" points="721.87 327 661.87 488 488.06 488 488.06 664.19 326.87 729 400.87 872 273.55 1000.1 397.87 1114 328.87 1277 486.87 1340 486.87 1508 660.87 1516 721.87 1672 876.87 1600 999.87 1723.87 999.87 277.1 873.87 405 721.87 327"/>
    </g>
  </g>
  <g id="Layer_4" data-name="Layer 4">
    <text class="cls-3" transform="translate(614.55 1454.06)"><tspan x="0" y="0">%</tspan></text>
  </g>
</svg>