<?xml version="1.0" encoding="UTF-8"?>
<svg id="Layer_1" data-name="Layer 1" xmlns="http://www.w3.org/2000/svg" viewBox="0 0 2000 2000">
  <defs>
    <style>
      .cls-1 {
        fill: #fff;
      }

      .cls-2 {
        fill: #0071bc;
      }
    </style>
  </defs>
  <path class="cls-1" d="M0,0c666.67,0,1333.33,0,2000,0,0,666.67,0,1333.33,0,2000-666.67,0-1333.33,0-2000,0C0,1333.33,0,666.67,0,0ZM1270.76,1088.47c0,95.85-.35,191.7,.14,287.54,.26,51.56,17.48,70.01,68.86,70.34,131.81,.86,263.64,.85,395.46,0,50.75-.33,69.01-19.67,69.1-70.09,.31-188.75,.29-377.49,.02-566.24-.07-53.18-21.35-74.4-75.69-74.62-127.38-.5-254.76-.5-382.13,0-54.9,.21-75.45,20.76-75.66,74.37-.37,92.9-.1,185.8-.1,278.69Zm198.94-403.49c0-34.17,.2-66.12-.04-98.08-.45-60.66-12.75-73.19-72.34-73.58-37.03-.24-74.06-.05-111.09-.05-305.14,0-610.28-.08-915.43,.08-56.34,.03-70.83,13.37-71.36,65.32-.53,51.61-.13,103.23-.13,154.84,0,61.32,0,122.64,0,183.62h69.35v-330.5H1402.57v98.33h67.14Zm-251.58,462.03H523.28v133.18h694.85v-133.18Zm-747.26,77.38c0-66.27-.38-132.54,.15-198.81,.29-35.58-13.3-55.56-52.02-54.93-57.67,.94-115.38,.66-173.06,.12-35.52-.33-50.67,16.65-50.55,51.43,.47,134.01,.39,268.03,.05,402.04-.1,36.52,16.45,54.24,53.66,53.8,53.24-.63,106.5,.09,159.75-.22,49.54-.29,61.59-12.49,61.93-63.45,.42-63.32,.1-126.65,.09-189.98Zm577.59,218.79c-18.51-38.56-35.08-73.08-52.39-109.15h-222.42c-20.01,39.65-37.68,74.65-55.09,109.15h329.9Z"/>
  <path class="cls-2" d="M1270.76,1088.47c0-92.9-.27-185.8,.1-278.69,.21-53.61,20.76-74.15,75.66-74.37,127.38-.5,254.76-.49,382.13,0,54.34,.21,75.61,21.43,75.69,74.62,.26,188.75,.29,377.49-.02,566.24-.08,50.42-18.35,69.77-69.1,70.09-131.81,.85-263.64,.86-395.46,0-51.38-.34-68.6-18.79-68.86-70.34-.49-95.84-.14-191.69-.14-287.54Zm37.68,244.08h457.31V789.04h-457.31v543.5Z"/>
  <path class="cls-2" d="M1469.71,684.98h-67.14v-98.33H368.66v330.5h-69.35c0-60.98,0-122.3,0-183.62,0-51.62-.4-103.23,.13-154.84,.53-51.96,15.03-65.29,71.36-65.32,305.14-.16,610.28-.08,915.43-.08,37.03,0,74.06-.19,111.09,.05,59.59,.39,71.89,12.91,72.34,73.58,.24,31.95,.04,63.91,.04,98.08Z"/>
  <path class="cls-2" d="M1218.12,1147v133.18H523.28v-133.18h694.85Z"/>
  <path class="cls-2" d="M470.87,1224.38c0,63.33,.32,126.65-.1,189.98-.34,50.95-12.39,63.16-61.93,63.45-53.25,.31-106.51-.4-159.75,.22-37.21,.44-53.76-17.28-53.66-53.8,.35-134.01,.42-268.03-.05-402.04-.12-34.78,15.03-51.77,50.55-51.43,57.68,.54,115.39,.82,173.06-.12,38.72-.63,52.31,19.36,52.02,54.93-.54,66.27-.15,132.54-.15,198.81Zm-247.94,170.26h219.24v-336.93H222.93v336.93Z"/>
  <path class="cls-2" d="M1048.45,1443.17h-329.9c17.41-34.49,35.08-69.5,55.09-109.15h222.42c17.31,36.07,33.88,70.59,52.39,109.15Z"/>
  <path class="cls-1" d="M1308.44,1332.55V789.04h457.31v543.5h-457.31Z"/>
  <path class="cls-1" d="M222.93,1394.64v-336.93h219.24v336.93H222.93Z"/>
</svg>