<svg width="61" height="61" viewBox="0 0 61 61" fill="none" xmlns="http://www.w3.org/2000/svg">
<path d="M59.3959 57.875H54.8334V22.8958C54.8334 22.4925 54.6731 22.1057 54.3879 21.8204C54.1027 21.5352 53.7159 21.375 53.3125 21.375H44.1875C43.7842 21.375 43.3973 21.5352 43.1121 21.8204C42.8269 22.1057 42.6667 22.4925 42.6667 22.8958V57.875H36.5833V35.0625C36.5833 34.6592 36.4231 34.2723 36.1379 33.9871C35.8527 33.7019 35.4659 33.5417 35.0625 33.5417H25.9375C25.5342 33.5417 25.1473 33.7019 24.8621 33.9871C24.5769 34.2723 24.4167 34.6592 24.4167 35.0625V57.875H18.3333V38.1042C18.3333 37.7008 18.1731 37.314 17.8879 37.0288C17.6027 36.7436 17.2159 36.5833 16.8125 36.5833H7.68751C7.28416 36.5833 6.89733 36.7436 6.61212 37.0288C6.32691 37.314 6.16668 37.7008 6.16668 38.1042V57.875H1.60418C1.20083 57.875 0.813997 58.0352 0.528786 58.3204C0.243574 58.6057 0.0833435 58.9925 0.0833435 59.3958C0.0833435 59.7992 0.243574 60.186 0.528786 60.4712C0.813997 60.7564 1.20083 60.9167 1.60418 60.9167H59.3959C59.7992 60.9167 60.186 60.7564 60.4712 60.4712C60.7565 60.186 60.9167 59.7992 60.9167 59.3958C60.9167 58.9925 60.7565 58.6057 60.4712 58.3204C60.186 58.0352 59.7992 57.875 59.3959 57.875ZM15.2917 57.875H9.20834V39.625H15.2917V57.875ZM33.5417 57.875H27.4583V36.5833H33.5417V57.875ZM51.7917 57.875H45.7083V24.4167H51.7917V57.875Z" fill="black"/>
<path d="M1.60417 33.5417C1.80363 33.5441 2.00139 33.5048 2.18474 33.4262C2.36809 33.3477 2.53296 33.2316 2.66876 33.0855L16.9646 18.82L28.0667 27.1542C28.3575 27.3758 28.7196 27.4827 29.0842 27.4547C29.4487 27.4266 29.7902 27.2656 30.0438 27.0021L51.7917 5.28463V10.7292C51.7917 11.1326 51.9519 11.5194 52.2371 11.8046C52.5223 12.0898 52.9092 12.25 53.3125 12.25C53.7159 12.25 54.1027 12.0898 54.3879 11.8046C54.6731 11.5194 54.8333 11.1326 54.8333 10.7292V1.60421C54.8786 1.41423 54.8786 1.21628 54.8333 1.02629C54.7562 0.808905 54.6315 0.611464 54.4684 0.448348C54.3053 0.285232 54.1078 0.160549 53.8904 0.0833772C53.7004 0.0381256 53.5025 0.0381256 53.3125 0.0833772H44.1875C43.7842 0.0833772 43.3973 0.243608 43.1121 0.528819C42.8269 0.814031 42.6667 1.20086 42.6667 1.60421C42.6667 2.00756 42.8269 2.39439 43.1121 2.6796C43.3973 2.96481 43.7842 3.12504 44.1875 3.12504H49.6321L28.8271 23.93L17.725 15.5959C17.4342 15.3743 17.072 15.2674 16.7075 15.2954C16.343 15.3235 16.0015 15.4845 15.7479 15.748L0.539589 30.9563C0.394104 31.0928 0.278149 31.2577 0.198882 31.4409C0.119616 31.624 0.0787201 31.8214 0.0787201 32.0209C0.0787201 32.2204 0.119616 32.4178 0.198882 32.6009C0.278149 32.784 0.394104 32.9489 0.539589 33.0855C0.675387 33.2316 0.84026 33.3477 1.02361 33.4262C1.20695 33.5048 1.40471 33.5441 1.60417 33.5417Z" fill="black"/>
</svg>
