<svg width="72" height="72" viewBox="0 0 72 72" fill="none" xmlns="http://www.w3.org/2000/svg">
<g clip-path="url(#clip0_128_126)">
<path d="M49.5 22.8C48.45 18.15 45.15 14.7 41.1 13.05C42.45 11.7 43.2 9.9 43.2 7.95C43.2 4.05 40.05 0.75 36 0.75C31.95 0.75 28.8 3.9 28.8 7.95C28.8 9.9 29.7 11.7 30.9 13.05C26.7 14.7 23.55 18.3 22.5 22.8L22.05 24.6H49.8L49.5 22.8ZM31.8 7.95C31.8 5.7 33.6 3.75 36 3.75C38.4 3.75 40.2 5.55 40.2 7.95C40.2 10.35 38.25 12.15 36 12.15C33.75 12.15 31.8 10.2 31.8 7.95ZM26.1 21.6C27.75 17.7 31.65 15 36 15C40.35 15 44.25 17.55 45.9 21.6H26.1Z" fill="black"/>
<path d="M71.25 63C70.2 58.35 66.9 54.9 62.85 53.25C64.2 51.9 64.95 50.0999 64.95 48.15C64.95 44.25 61.8 40.95 57.75 40.95C53.7 40.95 50.55 44.0999 50.55 48.15C50.55 50.0999 51.45 51.9 52.65 53.25C48.45 54.9 45.3 58.5 44.25 63L43.8 64.8H71.55L71.25 63ZM53.55 48C53.55 45.75 55.35 43.8 57.75 43.8C60.15 43.8 61.95 45.6 61.95 48C61.95 50.4 60.15 52.2 57.75 52.2C55.35 52.2 53.55 50.4 53.55 48ZM47.7 61.8C49.35 57.9 53.25 55.2 57.6 55.2C61.95 55.2 65.85 57.75 67.5 61.8H47.7Z" fill="black"/>
<path d="M27.75 63C26.7 58.35 23.4 54.9 19.35 53.25C20.7 51.9 21.45 50.0999 21.45 48.15C21.45 44.25 18.3 40.95 14.25 40.95C10.2 40.95 7.04999 44.1 7.04999 48C7.04999 49.95 7.94999 51.75 9.14999 53.1C4.94999 54.75 1.79999 58.35 0.749988 62.85L0.299988 64.65H28.05L27.75 63ZM10.05 48C10.05 45.75 11.85 43.8 14.25 43.8C16.65 43.8 18.45 45.6 18.45 48C18.45 50.4 16.65 52.2 14.25 52.2C11.85 52.2 10.05 50.4 10.05 48ZM4.34999 61.8C5.99999 57.9 9.89999 55.2 14.25 55.2C18.6 55.2 22.5 57.75 24.15 61.8H4.34999Z" fill="black"/>
<path d="M26.25 11.85L25.35 9C12.6 13.65 4.04999 25.65 4.04999 39.3C4.04999 40.5 4.04999 41.85 4.19999 43.05L7.19999 42.75C7.04999 41.7 7.04999 40.5 7.04999 39.45C7.04999 27 14.7 16.05 26.25 11.85Z" fill="black"/>
<path d="M48 69L46.95 66.15C39.75 69 31.65 69 24.6 65.85L23.4 68.55C27.45 70.2 31.65 71.1 36 71.1C40.2 71.25 44.25 70.5 48 69Z" fill="black"/>
<path d="M67.8 42.45C67.95 41.4 67.95 40.2 67.95 39.15C67.95 25.35 59.25 13.2 46.05 8.84998L45.15 11.7C57 15.6 64.95 26.7 64.95 39.15C64.95 40.2 64.95 41.1 64.8 42.15L67.8 42.45Z" fill="black"/>
</g>
<defs>
<clipPath id="clip0_128_126">
<rect width="72" height="72" fill="white"/>
</clipPath>
</defs>
</svg>
